# xmcd
#
# Track frame offsets: 
#        150
#        23015
#        37017
#        49528
#        65532
#        79146
#        96196
#        113346
#        124934
#        139771
#        153975
#        170965
#        184501
#        234585
#
# Disc length: 3264 seconds
#
# Revision: 0
# Processed by: cddbd v1.4PL0 Copyright (c) Steve Scherf et al.
# Submitted via: ExactAudioCopy v0.90a11
#
DISCID=b40cbe0e
DTITLE=Canned Heat - The Best Of CD 1
DYEAR=1900
DGENRE=
TTITLE0=On the road again[Single Version]
TTITLE1=Human Condition
TTITLE2=An Owl Song
TTITLE3=Amphetamine Annie
TTITLE4=Evil Woman
TTITLE5=Creol Queen
TTITLE6=Dimples
TTITLE7=Don't Hold On
TTITLE8=Dust My Broom
TTITLE9=Fannie Mae
TTITLE10=Going Down Slow
TTITLE11=Future Blues
TTITLE12=Fried Hockey Boogie
TTITLE13=Bullfrog Blues
EXTD=
EXTT0=
EXTT1=
EXTT2=
EXTT3=
EXTT4=
EXTT5=
EXTT6=
EXTT7=
EXTT8=
EXTT9=
EXTT10=
EXTT11=
EXTT12=
EXTT13=
PLAYORDER=
